<?xml version="1.0" encoding="utf-8"?>
<svg viewBox="0 0 674.62 552.08" xmlns="http://www.w3.org/2000/svg" xmlns:xlink="http://www.w3.org/1999/xlink">
  <defs>
    <linearGradient id="linear-gradient" x1="51.13" y1="343.81" x2="110.6" y2="533.56" gradientTransform="matrix(-0.93, -0.37, -0.37, 0.93, 677.72, 128.51)" gradientUnits="userSpaceOnUse">
      <stop offset="0" stop-color="#010101" stop-opacity="0"/>
      <stop offset="0.95" stop-color="#010101"/>
    </linearGradient>
    <linearGradient id="linear-gradient-2" x1="33.3" y1="346.45" x2="200.4" y2="549.22" xlink:href="#linear-gradient"/>
    <linearGradient id="linear-gradient-3" x1="-26.72" y1="384.31" x2="215.13" y2="515.92" xlink:href="#linear-gradient"/>
    <linearGradient id="linear-gradient-4" x1="-47.83" y1="387.65" x2="218.39" y2="482.8" xlink:href="#linear-gradient"/>
    <linearGradient id="linear-gradient-5" x1="-175.6" y1="615.13" x2="49.31" y2="673.68" gradientTransform="matrix(-0.96, 0.29, 0.29, 0.96, 176.07, -27.93)" xlink:href="#linear-gradient"/>
    <linearGradient id="linear-gradient-6" x1="436.31" y1="438.16" x2="227.5" y2="736.13" gradientTransform="matrix(1, 0, 0, 1, 0, 0)" xlink:href="#linear-gradient"/>
    <linearGradient id="linear-gradient-7" x1="128.24" y1="500.15" x2="218.87" y2="531.87" gradientTransform="matrix(1, 0, 0, 1, 0, 0)" xlink:href="#linear-gradient"/>
    <linearGradient id="linear-gradient-8" x1="149.3" y1="490.83" x2="346.98" y2="562.76" gradientTransform="matrix(1, 0, 0, 1, 0, 0)" xlink:href="#linear-gradient"/>
    <linearGradient id="linear-gradient-9" x1="240.02" y1="445.44" x2="220.76" y2="380.87" gradientTransform="matrix(1.506046, 0, 0, 0.993647, -107.233012, -26.403037)" xlink:href="#linear-gradient"/>
    <linearGradient id="linear-gradient-10" x1="168.88" y1="444.45" x2="252.06" y2="444.45" gradientTransform="matrix(1, 0, 0, 1, 0, 0)" xlink:href="#linear-gradient"/>
    <linearGradient id="linear-gradient-11" x1="207.27" y1="386.88" x2="228.52" y2="386.88" gradientUnits="userSpaceOnUse">
      <stop offset="0" stop-color="#e5c6d6"/>
      <stop offset="0.42" stop-color="#ead4d0"/>
      <stop offset="1" stop-color="#f0e9cb"/>
    </linearGradient>
    <linearGradient id="linear-gradient-12" x1="235.47" y1="350.39" x2="242.89" y2="350.39" xlink:href="#linear-gradient-11"/>
    <linearGradient id="linear-gradient-13" x1="265.83" y1="411.97" x2="227.43" y2="425.93" gradientTransform="translate(-85.49 21) rotate(-6.73)" xlink:href="#linear-gradient"/>
    <linearGradient id="linear-gradient-14" x1="237.79" y1="383.65" x2="374.89" y2="418.68" gradientTransform="matrix(1, 0, 0, 1, 0, 0)" xlink:href="#linear-gradient"/>
    <linearGradient id="linear-gradient-15" x1="212.8" y1="388.66" x2="261.54" y2="388.66" xlink:href="#linear-gradient-11"/>
    <linearGradient id="linear-gradient-16" x1="242.84" y1="424.59" x2="189.8" y2="349.47" gradientTransform="translate(-90.75 -6.32) rotate(-6.73)" xlink:href="#linear-gradient"/>
    <linearGradient id="linear-gradient-17" x1="236.75" y1="337.84" x2="221.16" y2="344.71" xlink:href="#linear-gradient-11"/>
  </defs>
  <path d="M 663.764 391.271 C 657.922 418.787 639.585 441.985 621.328 463.8 C 599.054 490.433 575.27 517.219 543.896 532.963 C 519.994 544.935 493.565 549.646 466.554 551.104 C 457.139 551.651 447.655 551.767 438.2 551.69 C 427.798 551.69 417.396 551.344 407.113 550.951 C 377.723 549.954 348.341 548.937 318.964 547.899 C 270.402 546.243 221.827 544.559 173.239 542.844 C 152.238 542.153 131.234 541.433 110.226 540.685 C 89.136 539.957 67.257 539.064 48.437 529.758 C 18.662 515.021 2.615 481.589 0.355 449.171 C -1.905 416.753 7.264 384.787 16.402 353.52 C 25.41 322.55 34.43 291.592 43.463 260.643 C 47.917 245.44 52.352 230.208 56.766 214.948 C 69.319 171.987 89.807 112.582 120.223 78.265 C 140.711 55.182 171.798 43.794 202.214 36.302 C 239.64 27.072 278.083 22.304 316.694 22.103 C 358.272 21.91 402.346 27.964 434.549 53.523 C 477.113 87.215 478.228 134.579 495.499 180.592 C 511.812 223.975 567.167 222.583 602.271 246.52 C 620.45 258.945 633.121 277.556 643.405 296.695 C 659.116 325.766 670.594 359.074 663.764 391.271 Z" fill="#68e1fd" opacity="0.24" style="isolation: isolate;"/>
  <path d="M513.83,428.12c.46-18.62-2.88-37.11-3.93-55.71a193.14,193.14,0,0,0-73,113.65c-1.35,6.35-2.38,12.88-1.6,19.33,1.14,9.46,9.91,26.74,21,27.93,9.93,1.06,23.49-18,29.26-25.59C502.85,484.94,513.13,456.76,513.83,428.12Z" transform="matrix(1, 0, 0, 1, -5.26, -27.309999)" fill="#68e1fd"/>
  <path d="M513.1,428.43c.46-18.62-2.89-37.11-3.94-55.7a193.09,193.09,0,0,0-73,113.65c-1.36,6.35-2.39,12.88-1.61,19.33,1.15,9.45,9.91,26.74,21,27.92,9.93,1.06,23.49-18,29.27-25.58C502.12,485.25,512.39,457.07,513.1,428.43Z" transform="matrix(1, 0, 0, 1, -5.26, -27.309999)" fill="url(#linear-gradient)"/>
  <path d="M492.74,447.46c.23-9.66-1.5-19.25-2.05-28.9a100.21,100.21,0,0,0-37.87,58.95,30.64,30.64,0,0,0-.83,10c.59,4.91,5.14,13.87,10.91,14.49,5.15.55,12.19-9.32,15.18-13.27A72,72,0,0,0,492.74,447.46Z" transform="matrix(1, 0, 0, 1, -5.26, -27.309999)" fill="url(#linear-gradient-2)"/>
  <path d="M533.74,543.32c4.26-14,6.38-29,14.94-40.84,11.34-15.64,32.61-23.43,39.85-41.34,3.6-8.9,3-18.94,1.22-28.36a18.38,18.38,0,0,0-2.4-6.89c-2.68-4-8.09-5.54-12.8-4.61s-8.8,3.93-12.09,7.44c-11.5,12.24-14.92,30.6-27,42.27-12.61,12.2-32.05,14.62-45.63,25.72C477.29,507,460.44,554.21,464,570c3.14,13.89,26.59.06,41.13,3.41C520.46,577,530,555.42,533.74,543.32Z" transform="matrix(1, 0, 0, 1, -5.26, -27.309999)" fill="#68e1fd"/>
  <path d="M533.74,543.32c4.26-14,6.38-29,14.94-40.84,11.34-15.64,32.61-23.43,39.85-41.34,3.6-8.9,3-18.94,1.22-28.36a18.38,18.38,0,0,0-2.4-6.89c-2.68-4-8.09-5.54-12.8-4.61s-8.8,3.93-12.09,7.44c-11.5,12.24-14.92,30.6-27,42.27-12.61,12.2-32.05,14.62-45.63,25.72-12.55,10.26-32,57.88-28.47,73.7,3.13,13.88,29.23-.32,43.77,3C520.46,577,530,555.42,533.74,543.32Z" transform="matrix(1, 0, 0, 1, -5.26, -27.309999)" fill="url(#linear-gradient-3)"/>
  <path d="M529.22,511c12.62-17.82,34.67-29.87,39.78-51.09.78-3.22.76-7.32-2.08-9-3.76-2.25-8.07,1.8-10.65,5.35-4.41,6.09-9.09,12.1-15,16.8-10.66,8.54-24.47,12.14-35.76,19.82-15.21,10.33-26.59,29.67-25.42,48.44.47,7.54,4.07,16.18,12.5,17.34,8.77,1.21,14.28-7,18.29-13.51C517.73,534.13,521.71,521.59,529.22,511Z" transform="matrix(1, 0, 0, 1, -5.26, -27.309999)" fill="url(#linear-gradient-4)"/>
  <path d="M523.52,463q1.31,15.54,1.73,31.15c.36,12.65.24,25.6-4,37.55-7.31,20.8-26.17,35.75-46.46,44.39q-5-22.67-11.4-45c-2.94-10.27-5.49-16.91,0-26.45,6-10.5,15.48-19.76,25.29-26.7C491.3,476.14,523.33,460.75,523.52,463Z" transform="matrix(1, 0, 0, 1, -5.26, -27.309999)" fill="#68e1fd"/>
  <path d="M506,489.19q1.08,12.9,1.44,25.85c.29,10.51.19,21.26-3.29,31.17-6.07,17.27-21.43,24.72-38.27,31.88-2.77-12.54-6.22-20-9.75-32.38-2.44-8.52-4.56-14,0-22,5-8.72,12.85-16.4,21-22.16C479.21,500.08,505.8,487.3,506,489.19Z" transform="matrix(1, 0, 0, 1, -5.26, -27.309999)" fill="url(#linear-gradient-5)"/>
  <path d="M478,576.45l-149.15-2.27-.38-158.82A74.54,74.54,0,0,1,403,340.82h.45A74.54,74.54,0,0,1,478,415.36Z" transform="matrix(1, 0, 0, 1, -5.26, -27.309999)" fill="#68e1fd"/>
  <path d="M478,415.58V578.76c-9.54.57-19.15.69-28.73.61-10.54,0-21.08-.36-31.5-.77q-44.67-1.56-89.32-3.18V415.58a74.78,74.78,0,1,1,149.55,0Z" transform="matrix(1, 0, 0, 1, -5.26, -27.309999)" fill="url(#linear-gradient-6)"/>
  <path d="M147.33,491.53c-2.47-7.21-3.39-14.87-5.68-22.14s-6.3-14.48-13-18.12-16.43-2.27-20.13,4.4A15.61,15.61,0,0,0,107,465c1.33,11.26,10.72,20.07,13.22,31.13,1.48,6.57.41,13.47,1.38,20.14a33.73,33.73,0,0,0,14.72,23.09c4.49,2.93,9.63,4.75,14.21,7.54a38.57,38.57,0,0,1,14.17,15.24,35.18,35.18,0,0,0,11.51-27.41C175.2,512.47,153.69,510.1,147.33,491.53Z" transform="matrix(1, 0, 0, 1, -5.26, -27.309999)" fill="#68e1fd"/>
  <path d="M147.33,491.53c-2.47-7.21-3.39-14.87-5.68-22.14s-6.3-14.48-13-18.12-16.43-2.27-20.13,4.4A15.61,15.61,0,0,0,107,465c1.33,11.26,10.72,20.07,13.22,31.13,1.48,6.57.41,13.47,1.38,20.14a33.73,33.73,0,0,0,14.72,23.09c4.49,2.93,9.63,4.75,14.21,7.54a38.57,38.57,0,0,1,14.17,15.24,35.18,35.18,0,0,0,11.51-27.41C175.2,512.47,153.69,510.1,147.33,491.53Z" transform="matrix(1, 0, 0, 1, -5.26, -27.309999)" fill="url(#linear-gradient-7)"/>
  <path d="M173.16,451.53c-1-4.74-.94-9.7-2.4-14.32s-5-9.09-9.82-9.58c-5.55-.55-10.37,4.59-11.5,10.06s.46,11.09,2,16.45l6.15,21c1.91,6.51,3.07,15.12-2.73,18.63a37.09,37.09,0,0,1-4.25,1.8,13.65,13.65,0,0,0-7.88,12.78c.31,6.61,5.32,11.89,9.68,16.88s8.57,11.35,6.9,17.75c-1.24,4.75-5.62,8.87-4.72,13.69.75,4,5.12,6.5,9.19,6.53s7.9-1.77,11.57-3.54l17.53-8.47c5.64-2.73,11.57-5.7,14.93-11,2.26-3.54,3.13-7.79,3.55-12a66.92,66.92,0,0,0-12.14-45.11C190.69,471.13,176.54,467.81,173.16,451.53Z" transform="matrix(1, 0, 0, 1, -5.26, -27.309999)" fill="#68e1fd"/>
  <path d="M173.16,451.53c-1-4.74-.94-9.7-2.4-14.32s-5-9.09-9.82-9.58c-5.55-.55-10.37,4.59-11.5,10.06s.46,11.09,2,16.45l6.15,21c1.91,6.51,3.07,15.12-2.73,18.63a37.09,37.09,0,0,1-4.25,1.8,13.65,13.65,0,0,0-7.88,12.78c.31,6.61,5.32,11.89,9.68,16.88s8.57,11.35,6.9,17.75c-1.24,4.75-5.62,8.87-4.72,13.69.75,4,5.12,6.5,9.19,6.53s7.9-1.77,11.57-3.54l17.53-8.47c5.64-2.73,11.57-5.7,14.93-11,2.26-3.54,3.13-7.79,3.55-12a66.92,66.92,0,0,0-12.14-45.11C190.69,471.13,176.54,467.81,173.16,451.53Z" transform="matrix(1, 0, 0, 1, -5.26, -27.309999)" fill="url(#linear-gradient-8)"/>
  <rect x="265.39" y="279.35" width="198.56" height="147.23" rx="25.68" transform="matrix(-1, 0, 0, -1, 724.090027, 678.609985)" fill="#68e1fd" opacity="0.24" style="isolation: isolate;"/>
  <g opacity="0.52">
    <rect x="282.2" y="290.12" width="53.13" height="3.9" fill="#fff"/>
    <rect x="282.2" y="297.66" width="32.43" height="3.66" fill="#fff"/>
    <rect x="327.71" y="297.66" width="102.04" height="3.68" fill="#fff"/>
    <rect x="299.06" y="305.22" width="44.59" height="3.86" fill="#fff"/>
    <rect x="313.37" y="312.75" width="53.13" height="3.9" fill="#fff"/>
    <rect x="369.97" y="312.75" width="44.53" height="4.33" fill="#fff"/>
    <rect x="313.3" y="320.29" width="41.02" height="3.66" fill="#fff"/>
    <rect x="358.26" y="320.29" width="84.65" height="4.05" fill="#fff"/>
    <rect x="282.2" y="330.5" width="53.13" height="3.9" fill="#fff"/>
    <rect x="282.2" y="338.03" width="32.43" height="3.66" fill="#fff"/>
    <rect x="327.71" y="338.03" width="102.04" height="3.68" fill="#fff"/>
    <rect x="299.06" y="345.57" width="44.59" height="3.86" fill="#fff"/>
    <rect x="313.37" y="353.13" width="53.13" height="3.9" fill="#fff"/>
    <rect x="369.97" y="353.13" width="44.53" height="4.33" fill="#fff"/>
    <rect x="313.3" y="360.67" width="41.02" height="3.66" fill="#fff"/>
    <rect x="358.26" y="360.67" width="84.65" height="4.05" fill="#fff"/>
  </g>
  <rect x="394.92" y="201.89" width="131.4" height="97.43" rx="16.99" transform="matrix(-1, 0, 0, -1, 915.97998, 473.899994)" fill="#fff"/>
  <g opacity="0.52">
    <rect x="404.26" y="199.78" width="35.16" height="2.58" fill="#68e1fd"/>
    <rect x="404.26" y="204.77" width="21.46" height="2.42" fill="#68e1fd"/>
    <rect x="434.38" y="204.77" width="67.53" height="2.44" fill="#68e1fd"/>
    <rect x="415.42" y="209.77" width="29.51" height="2.55" fill="#68e1fd"/>
    <rect x="424.89" y="214.76" width="35.16" height="2.58" fill="#68e1fd"/>
    <rect x="462.34" y="214.76" width="29.47" height="2.86" fill="#68e1fd"/>
    <rect x="424.84" y="219.75" width="27.15" height="2.42" fill="#68e1fd"/>
    <rect x="454.59" y="219.75" width="56.02" height="2.68" fill="#68e1fd"/>
    <rect x="404.26" y="226.5" width="35.16" height="2.58" fill="#68e1fd"/>
    <rect x="404.26" y="231.49" width="21.46" height="2.42" fill="#68e1fd"/>
    <rect x="434.38" y="231.49" width="67.53" height="2.44" fill="#68e1fd"/>
    <rect x="415.42" y="236.48" width="29.51" height="2.55" fill="#68e1fd"/>
    <rect x="424.89" y="241.48" width="35.16" height="2.58" fill="#68e1fd"/>
    <rect x="462.34" y="241.48" width="29.47" height="2.86" fill="#68e1fd"/>
    <rect x="424.84" y="246.47" width="27.15" height="2.42" fill="#68e1fd"/>
    <rect x="454.59" y="246.47" width="56.02" height="2.68" fill="#68e1fd"/>
  </g>
  <rect x="78.43" y="294.75" width="129.32" height="95.89" rx="16.72" transform="matrix(-1, 0, 0, -1, 280.920013, 658.080017)" fill="#fff"/>
  <g opacity="0.52">
    <rect x="87.55" y="292.24" width="34.6" height="2.54" fill="#68e1fd"/>
    <rect x="87.55" y="297.15" width="21.12" height="2.38" fill="#68e1fd"/>
    <rect x="117.18" y="297.15" width="66.45" height="2.4" fill="#68e1fd"/>
    <rect x="98.53" y="302.07" width="29.04" height="2.51" fill="#68e1fd"/>
    <rect x="107.85" y="306.98" width="34.6" height="2.54" fill="#68e1fd"/>
    <rect x="144.7" y="306.98" width="29" height="2.82" fill="#68e1fd"/>
    <rect x="107.8" y="311.89" width="26.72" height="2.38" fill="#68e1fd"/>
    <rect x="137.08" y="311.89" width="55.13" height="2.64" fill="#68e1fd"/>
    <rect x="87.55" y="318.54" width="34.6" height="2.54" fill="#68e1fd"/>
    <rect x="87.55" y="323.45" width="21.12" height="2.38" fill="#68e1fd"/>
    <rect x="117.18" y="323.45" width="66.45" height="2.4" fill="#68e1fd"/>
    <rect x="98.53" y="328.36" width="29.04" height="2.51" fill="#68e1fd"/>
    <rect x="107.85" y="333.28" width="34.6" height="2.54" fill="#68e1fd"/>
    <rect x="144.7" y="333.28" width="29" height="2.82" fill="#68e1fd"/>
    <rect x="107.8" y="338.19" width="26.72" height="2.38" fill="#68e1fd"/>
    <rect x="137.08" y="338.19" width="55.13" height="2.64" fill="#68e1fd"/>
  </g>
  <g opacity="0.24" style="isolation: isolate;">
    <path d="M356.23,163.76v78.88a17.51,17.51,0,0,1-17.5,17.5H255.58L231,284.67l-19.18-24.53h-85.1a17.46,17.46,0,0,1-17.45-17.5V163.76a17.5,17.5,0,0,1,17.45-17.5h212A17.54,17.54,0,0,1,356.23,163.76Z" transform="translate(-5.26 -27.31)" fill="#68e1fd"/>
  </g>
  <path d="M449.27,504.13v75.24c-10.54,0-21.08-.36-31.5-.77q-118.47-4.15-237-8.45v-66a83.66,83.66,0,0,1,83.65-83.65H365.66A83.63,83.63,0,0,1,449.27,504.13Z" transform="matrix(1, 0, 0, 1, -5.26, -27.309999)" fill="#68e1fd"/>
  <path d="M 255.514 412.709 C 271.447 411.547 288.269 409.501 300.153 402.386 C 302.955 400.697 305.59 398.123 303.994 395.847 C 302.563 393.8 298.602 393.264 295.198 393.084 C 270.739 391.803 246.266 395.718 223.284 401.402 C 214.745 403.518 205.633 406.051 199.789 410.892 C 195.843 414.161 192.967 421.663 203.028 421.663 C 206.567 421.663 210.754 419.139 213.917 418.204 C 218.218 416.963 222.692 416.001 227.275 415.333 C 236.537 413.901 246.07 413.405 255.514 412.709 Z" fill="url(#linear-gradient-9)" style=""/>
  <path d="M235.51,409.56l-13.92-2.38s-37.1,15-40.78,20.4-5.67,45.31-5.67,45.31-7.5,6.51-6.09,8.49,14.45-5.8,14.45-5.8l10.19-30.87,58.37-33.22Z" transform="matrix(1, 0, 0, 1, -5.26, -27.309999)" fill="#606161"/>
  <path d="M235.51,409.56l-13.92-2.38s-37.1,15-40.78,20.4-5.67,45.31-5.67,45.31-7.5,6.51-6.09,8.49,14.45-5.8,14.45-5.8l10.19-30.87,58.37-33.22Z" transform="matrix(1, 0, 0, 1, -5.26, -27.309999)" fill="url(#linear-gradient-10)"/>
  <path d="M220.66,385.5c-1.68,1.65-4,2.15-5.87,3.5s-3.84,2.2-5.45,3.58a6.13,6.13,0,0,0-2,5.73,1.23,1.23,0,0,0,.35.73,1.24,1.24,0,0,0,1.13,0A18.72,18.72,0,0,0,214,396a.82.82,0,0,1,.71-.22c.29.11.36.49.56.73a1,1,0,0,0,1.43,0,3.52,3.52,0,0,0,.81-1.34c1.21-2.85,5.34-3.05,8.19-2.8,3.48.3,2.3-1.33,2.77-1.77s-2.73-2.17-2.47-2.89a30.81,30.81,0,0,0,1.78-9.41,5.24,5.24,0,0,0-.37-2.52c-1.77-3.52-3.23,1.93-3.64,3.29C223.07,381.31,222.43,383.77,220.66,385.5Z" transform="matrix(1, 0, 0, 1, -5.26, -27.309999)" fill="url(#linear-gradient-11)"/>
  <path d="M223.53,373.24a2,2,0,0,0,0,1.22,2,2,0,0,0,.73.83,11.84,11.84,0,0,0,3.9,1.88,3.23,3.23,0,0,0,1.3.15,3.45,3.45,0,0,0,2-1.26,18.6,18.6,0,0,0,4.55-10.63c.19-1.76.81-8.2-.66-9.48-1.65-1.44-3.7,1.89-4.81,3.28A36.67,36.67,0,0,0,223.53,373.24Z" transform="matrix(1, 0, 0, 1, -5.26, -27.309999)" fill="#fff"/>
  <path d="M231.94,360.5c-4.23,10.25-5.92,21.42-6,32.51,0,3.56-5.15,12.39-2.35,14.6,1.68,1.33,1.85,1.25,4,1.56,5,.72,22,11.19,26.9,10.33S264.07,389.9,264,386c-.17-10.84-1.11-23.89-9.51-31.84-3.23-3.05-7.34-6.59-12-5.25C237,350.51,234,355.56,231.94,360.5Z" transform="matrix(1, 0, 0, 1, -5.26, -27.309999)" fill="#fff"/>
  <path d="M236.58,355.41c0,.8,0,1.79.69,2.15a1.54,1.54,0,0,0,.95.1,4.92,4.92,0,0,0,3.1-2.4,9.63,9.63,0,0,0,1.49-6.41,8.69,8.69,0,0,0-2.75-5.17,1.7,1.7,0,0,0-1.34-.57,1.75,1.75,0,0,0-.73.4,10,10,0,0,0-2.19,2.26c-.6.93-.24,1.46,0,2.47A23.73,23.73,0,0,1,236.58,355.41Z" transform="matrix(1, 0, 0, 1, -5.26, -27.309999)" fill="url(#linear-gradient-12)"/>
  <polygon points="170.88 356.08 188.17 381.43 207.44 392.59 231.28 381.63 226.02 378.29 210.09 366.96 197.21 373.21 193.25 366.42 170.88 356.08" fill="#68e1fd"/>
  <path d="M202.47,400.53s9.88,14.17,9.94,14.67,19.2-8,19.2-8l-16.26-13Z" transform="matrix(1, 0, 0, 1, -5.26, -27.309999)" fill="url(#linear-gradient-13)"/>
  <path d="M245.25,363.87s-2.85,17.37-2.11,18.66,4.5,2.85,4.5,2.85-1.28,6.89-10.11,8.55-7,8.91-7,8.91,4.78,3.31,13.43,2.21,13-1.29,15.07-4.6,3.5-16,2-21.14S245.25,363.87,245.25,363.87Z" transform="matrix(1, 0, 0, 1, -5.26, -27.309999)" fill="url(#linear-gradient-14)"/>
  <path d="M247.94,390.17c-3.25,3.13-7.81,4.46-12.23,5.38a97.44,97.44,0,0,1-11.41,1.68c-2.63.24-5.36.39-7.72,1.59s-4.24,3.81-3.68,6.39q13.24-.7,26.48-1.6c4.69-.32,9.45-.67,13.89-2.2,3.11-1.07,6.23-2.94,7.46-6a12.26,12.26,0,0,0,.72-3.84,75.89,75.89,0,0,0-.21-9.77,16.33,16.33,0,0,0-1.29-6.4c-2.3-4.6-8.07-4.4-8.88.6C250.2,381.35,252.63,385.66,247.94,390.17Z" transform="matrix(1, 0, 0, 1, -5.26, -27.309999)" fill="url(#linear-gradient-15)"/>
  <path d="M243.51,360.88l6.06,20s13-.41,14.35-2.76S260.8,358,254.5,354.19,243.64,354.81,243.51,360.88Z" transform="matrix(1, 0, 0, 1, -5.26, -27.309999)" fill="#fff"/>
  <path d="M235.51,409.56,189.45,434.1l-3.59,43.3s-7.17,6.62-7.17,8.55,3.86.83,9.66-1.38a34,34,0,0,0,8.82-4.69l8-36.4s47.71-6.62,51.3-16.55a13.25,13.25,0,0,0-4.41-15.44Z" transform="matrix(1, 0, 0, 1, -5.26, -27.309999)" fill="#606161"/>
  <polygon points="187.95 380.91 205.82 391.59 190.56 368.68 172.27 358.79 187.95 380.91" fill="url(#linear-gradient-16)"/>
  <path d="M225,347.92a13,13,0,0,0,2,2.8,7.51,7.51,0,0,0,8.62,1.23,8.89,8.89,0,0,0,4.06-5.23A14.67,14.67,0,0,0,240,340a13.73,13.73,0,0,0-4.2-8.33,13.94,13.94,0,0,0-6-2.75,7.35,7.35,0,0,0-3.16-.16,8.37,8.37,0,0,0-2.74,1.36,12.52,12.52,0,0,0-2.55,2.09C217.77,336.39,222.87,344.26,225,347.92Z" transform="matrix(1, 0, 0, 1, -5.26, -27.309999)" fill="url(#linear-gradient-17)"/>
  <path d="M237.25,339.73a1.53,1.53,0,0,0,.61-1.33c0-.51-.12-1-.12-1.53a.78.78,0,0,1,.08-.4c.22-.41.88-.23,1.18.13.79,1,.28,2.41.32,3.67a3.94,3.94,0,0,0,1.05,2.5,14.19,14.19,0,0,0-1.29-12.53,4,4,0,0,1-.59-1.1c-.24-.82.09-1.7-.05-2.54-.22-1.42-1.71-2.32-3.14-2.53s-2.88.07-4.32,0c-1-.07-2-.31-2.95-.34a11.71,11.71,0,0,0-3.1.43c-2.4.59-4.86,1.46-6.52,3.29-2,2.17-2.48,5.28-2.64,8.21-.09,1.69,0,3.61,1.27,4.73a4.78,4.78,0,0,0,3.47.9,5.74,5.74,0,0,0,3.58-1.28,11.37,11.37,0,0,0,2.09-3.59.74.74,0,0,1,.29-.34.67.67,0,0,1,.42,0,14.52,14.52,0,0,0,2.83.46,3.5,3.5,0,0,0,2.62-1,.72.72,0,0,1,.39-.28.56.56,0,0,1,.35.09,12.59,12.59,0,0,1,2.73,1.34A11.29,11.29,0,0,1,237.25,339.73Z" transform="matrix(1, 0, 0, 1, -5.26, -27.309999)" fill="#606161"/>
  <path d="M 290.751 400.35 L 272.534 399.814 C 272.534 399.814 273.905 391.308 269.506 388.948 C 266.507 387.338 263.846 379.817 264.603 374.7 C 264.613 374.632 264.624 374.564 264.635 374.497 C 265.019 372.206 266.116 370.432 268.213 369.95 C 274.993 368.393 279.832 369.6 279.832 369.6 C 279.832 369.6 280.952 369.615 282.611 369.938 C 282.67 369.948 282.73 369.96 282.789 369.974 C 287.487 370.928 296.171 374.327 296.547 386.396 C 297.065 402.978 290.751 400.348 290.751 400.348 L 290.751 400.35 Z" style="fill: rgb(96, 97, 97);"/>
  <path d="M 282.611 369.939 C 282.58 370.804 282.391 371.664 282.046 372.481 C 281.33 374.175 280.025 375.469 278.372 376.124 C 273.42 378.09 267.642 376.14 264.719 374.027 C 264.707 374.094 264.476 375.361 264.465 375.429 C 265.759 376.347 272.092 377.232 273.294 377.232 C 275.118 377.232 276.874 376.919 278.436 376.298 C 280.134 375.624 281.474 374.294 282.21 372.554 C 282.561 371.724 282.754 370.852 282.789 369.974 C 282.73 369.96 282.67 369.948 282.611 369.938 C 282.611 369.938 282.611 369.938 282.611 369.938 L 282.611 369.939 Z" fill="#63d6ff"/>
  <path d="M 283.958 371.04 L 281.055 363.469 C 281.055 363.469 284.54 357.275 281.801 356.587 C 279.063 355.898 276.242 359.598 276.242 359.598 C 276.242 359.598 271.015 357.705 269.024 359.253 C 269.024 359.253 265.705 354.435 263.715 355.382 C 261.723 356.328 264.423 363.149 264.423 363.149 C 264.423 363.149 260.313 369.405 263.466 373.018 C 266.619 376.632 278.484 379.557 283.959 371.039 L 283.958 371.04 Z" style="fill: rgb(96, 97, 97);"/>
  <path d="M 290.186 395.819 C 291.174 396.276 292.207 396.74 293.289 396.696 C 294.37 396.652 295.507 395.93 295.676 394.822 C 295.763 394.249 295.591 393.636 295.802 393.1 C 296.086 392.379 297.003 392.1 297.715 392.347 C 298.428 392.594 298.951 393.232 299.327 393.906 C 300.03 395.169 300.311 396.827 299.557 398.058 C 298.905 399.125 297.666 399.608 296.515 400.022 C 294.98 400.573 293.268 401.119 291.781 400.442 C 290.286 399.762 289.471 397.795 290.025 396.202" style="fill: rgb(96, 97, 97);"/>
  <path d="M 264.45 377.362 L 267.755 395.61 C 267.755 395.61 262.753 400.89 269.184 400.796 C 275.615 400.704 273.739 397.277 273.739 397.277 L 271.684 381.438" style="fill: rgb(96, 97, 97);"/>
  <path d="M 269.022 400.931 C 267.28 400.931 266.227 400.517 265.889 399.699 C 265.275 398.209 267.275 395.938 267.617 395.564 L 265.395 381.923 L 265.648 381.878 L 267.893 395.654 L 267.846 395.702 C 267.823 395.726 265.536 398.165 266.126 399.593 C 266.429 400.328 267.455 400.687 269.183 400.661 C 271.584 400.627 273.131 400.105 273.659 399.153 C 274.134 398.296 273.632 397.35 273.627 397.341 L 273.616 397.318 L 273.612 397.293 L 272.183 386.271 L 272.437 386.235 L 273.864 397.233 C 273.949 397.4 274.393 398.362 273.885 399.284 C 273.301 400.338 271.72 400.892 269.187 400.928 C 269.131 400.928 269.077 400.928 269.023 400.928 L 269.022 400.931 Z" fill="#2f2e41"/>
  <path d="M 272.846 377.362 L 276.151 395.61 C 276.151 395.61 271.149 400.89 277.58 400.796 C 284.011 400.704 282.135 397.277 282.135 397.277 L 280.08 381.438" style="fill: rgb(96, 97, 97);"/>
  <path d="M 277.417 400.931 C 275.676 400.931 274.622 400.517 274.285 399.699 C 273.671 398.212 275.666 395.943 276.012 395.565 L 274.684 388.223 L 274.938 388.173 L 276.29 395.652 L 276.242 395.702 C 276.219 395.726 273.932 398.165 274.522 399.593 C 274.824 400.328 275.852 400.688 277.578 400.661 C 279.981 400.627 281.53 400.105 282.056 399.15 C 282.531 398.29 282.028 397.35 282.023 397.341 L 282.01 397.318 L 279.953 381.454 L 280.208 381.418 L 282.258 397.233 C 282.343 397.4 282.788 398.362 282.279 399.284 C 281.696 400.338 280.115 400.892 277.581 400.928 C 277.526 400.928 277.472 400.928 277.417 400.928 L 277.417 400.931 Z" style="fill: rgb(47, 46, 65);"/>
  <g opacity="0.52" transform="matrix(1, 0, 0, 1, -133.910995, -149.514084)">
    <rect x="282.2" y="290.12" width="53.13" height="3.9" fill="#fff"/>
    <rect x="282.2" y="297.66" width="32.43" height="3.66" fill="#fff"/>
    <rect x="327.71" y="297.66" width="102.04" height="3.68" fill="#fff"/>
    <rect x="299.06" y="305.22" width="44.59" height="3.86" fill="#fff"/>
    <rect x="313.37" y="312.75" width="53.13" height="3.9" fill="#fff"/>
    <rect x="369.97" y="312.75" width="44.53" height="4.33" fill="#fff"/>
    <rect x="313.3" y="320.29" width="41.02" height="3.66" fill="#fff"/>
    <rect x="358.26" y="320.29" width="84.65" height="4.05" fill="#fff"/>
    <rect x="282.2" y="330.5" width="53.13" height="3.9" fill="#fff"/>
    <rect x="282.2" y="338.03" width="32.43" height="3.66" fill="#fff"/>
    <rect x="327.71" y="338.03" width="102.04" height="3.68" fill="#fff"/>
    <rect x="299.06" y="345.57" width="44.59" height="3.86" fill="#fff"/>
    <rect x="313.37" y="353.13" width="53.13" height="3.9" fill="#fff"/>
    <rect x="369.97" y="353.13" width="44.53" height="4.33" fill="#fff"/>
    <rect x="313.3" y="360.67" width="41.02" height="3.66" fill="#fff"/>
    <rect x="358.26" y="360.67" width="84.65" height="4.05" fill="#fff"/>
  </g>
</svg>